<?xml version="1.0" encoding="utf-8"?>
<!-- Generator: Adobe Illustrator 21.1.0, SVG Export Plug-In . SVG Version: 6.00 Build 0)  -->
<svg version="1.1" id="Layer_1" xmlns="http://www.w3.org/2000/svg" xmlns:xlink="http://www.w3.org/1999/xlink" x="0px" y="0px"
	 viewBox="0 0 224.9 226.8" style="enable-background:new 0 0 224.9 226.8;" xml:space="preserve" width="60px" height="60px">
<style type="text/css">
	.st0{fill-rule:evenodd;clip-rule:evenodd;fill:#FEFFFF;}
	.st1{fill-rule:evenodd;clip-rule:evenodd;fill:#006238;}
	.st2{fill:#006238;}
</style>
<g>
	<path class="st0" d="M112.4,0c62.1,0,112.4,50.3,112.4,112.4s-50.3,112.4-112.4,112.4S0,174.5,0,112.4S50.3,0,112.4,0L112.4,0z"/>
	<path class="st1" d="M112.4,3.3c60.3,0,109.1,48.9,109.1,109.1s-48.9,109.1-109.1,109.1S3.3,172.7,3.3,112.4S52.2,3.3,112.4,3.3
		L112.4,3.3z M112.4,6.1c58.7,0,106.3,47.6,106.3,106.3c0,58.7-47.6,106.3-106.3,106.3S6.1,171.2,6.1,112.4
		C6.1,53.7,53.7,6.1,112.4,6.1L112.4,6.1z"/>
	<path class="st1" d="M112.4,9.2c57,0,103.3,46.2,103.3,103.3s-46.2,103.3-103.3,103.3c-57,0-103.3-46.2-103.3-103.3
		S55.4,9.2,112.4,9.2L112.4,9.2z M112.4,18.8c31.2,0,56.5,25.3,56.5,56.5c0,31.2-25.3,56.5-56.5,56.5c-31.2,0-56.5-25.3-56.5-56.5
		C55.9,44.1,81.2,18.8,112.4,18.8L112.4,18.8z M54.8,99.3c0.8,2.2,3.3,6.8,4.3,8.4c2.5,3.8,0.8,8.1-3.8,10.4l-9.4,4.8
		c-4.5,2.2-13,1.2-14.6-4.8c-0.7-2.1-1-3.7-1.5-5.9l-13.5,3.7c-0.3-4.9-0.4-5.7-0.1-9.9L54.8,99.3L54.8,99.3z M50.7,106.6l-13,3.5
		c0.2,1.1,0.4,2,0.7,3.1c0.9,3.1,2.4,3.1,6,1.7l4.7-1.8c1.9-0.8,3.8-1.7,2.8-3.9C51.3,108.2,50.7,106.6,50.7,106.6L50.7,106.6z
		 M67.1,118.4c1.5,1.5,3.3,3.3,5.1,4.8l-36.1,48.1c-2.3-3-4.7-6.6-6.7-9.9l10.1-10.9c-2.2-3.4-4.2-6.2-6-10.5l-11.7,5.2
		c-1.3-3.4-2.4-7.2-2.9-9.8L67.1,118.4L67.1,118.4z M59.1,129.2l-18.3,7.6c1.4,2.7,2.7,4.8,4.5,7.2L59.1,129.2L59.1,129.2z
		 M37.4,172.9l40.9-45.2c-0.2,0,3.7,2.3,5.6,3.3L52.3,173c3.3,3.3,4.6,4.3,8.6,7.3l-5.7,9.7C49.1,185.7,41.2,178,37.4,172.9
		L37.4,172.9z M57.6,191.8l31.7-58.3c1.9,0.8,4,1.5,5.9,2l-3.5,30c0.9-2.2,11.8-28.1,11.8-28.2c1.7,0.3,4.8,0.6,6.2,0.6l-4.3,70.8
		c-3.6-0.1-9.2-0.9-13.2-1.9l6-35.7L83,195.6l-0.4-29.7c-1.3,3.8-13.8,32.6-13.8,32.7C64.3,196.2,60.6,193.9,57.6,191.8L57.6,191.8z
		 M124.5,136.9c-4.3,0.8-6.8,1.1-12.4,1.1l-1.5,71c11.1,0.3,22.3-1.5,31.9-4.7l-3.2-12c-5.1,1.6-10.1,2.9-15.1,3.3l-2.8-24.3
		c5.1-0.6,7.9-1.2,11.6-2.4l-2.4-9c-3.4,1-6.7,1.5-10.3,1.9l-2-17.1c2.7-0.1,5.5-0.5,7.9-1.2L124.5,136.9L124.5,136.9z M126.6,136.4
		c2.1-0.5,3.6-0.9,5.6-1.6l27.5,62c-3.7,2-8.3,4.3-12.9,6L126.6,136.4L126.6,136.4z M163.8,194.3l-29.5-60.2c3.8-1.4,7-3,10.2-4.9
		c4.1-2.6,7.4,0,10.8,3.2l8.6,8c8.2,7.6,6.7,13.3,4.9,15.1l21.4,14.1c-2.3,3.2-4.6,6-7.2,8.7l-20.9-16.9l-2.4,1.7l15.6,22.8
		C172,188.8,167.7,191.9,163.8,194.3L163.8,194.3z M155.2,155.8c4.1-2.6,6.5-4.7,1.5-10.6l-5.6-7c-3.4-4.7-5.4-2.1-7.9-1
		L155.2,155.8L155.2,155.8z M158.9,117.5c-1.4,1.5-2.9,3.1-4.6,4.6l36.9,46.3c2.2-3,4.5-6.7,6.4-10.1l-10.1-10.1
		c2.2-3.5,3.1-5.5,4.9-9.7l11.5,5c1.3-3.3,2.3-6.4,3-9.6L158.9,117.5L158.9,117.5z M168,128.4l17,7c-1.3,2.6-2,4-3.8,6.7L168,128.4
		L168,128.4z M178.7,107.2c0.8-1.8,1.6-3.7,2.3-5.7c-2-0.3-3.6-0.6-5.1-0.9c-3.7-0.6-6.2,0.6-7.4,2.3c-1.2,1.6-2,3.2-2.8,5.4
		s-0.8,6.3,5.5,9.1c5.5,2.5,9.6,5,18.3-2.4c5.1-4.1,7-2.7,8.9-2.3c2.7,0.9,2.9,2,2.4,4.8c-0.7,3.5-4.6,1.6-6.5,0.9
		c-0.7,2.8-1.5,4.9-2.7,7.8c1.1,0.5,2.5,1.1,3.8,1.7c5.8,2.3,12.3,1.1,13.8-5.9c0.9-4.7,0.6-7,0.6-7.8c-0.1-4.3-3.3-8.2-8.8-9.2
		c-5.4-1.1-9-1.4-16.6,4.3c-3.9,2.9-4.5,4-8,2.6c-1.9-0.7-3.7-1.3-2.6-3.5C174.5,106.5,175.4,106.2,178.7,107.2L178.7,107.2z
		 M58.9,35.2l-1.3,2.9l2.2,2.3l-3.2-0.3L55,42.9l-0.7-3.1l-3.1-0.6l2.7-1.6l-0.4-3.2l2.4,2.1L58.9,35.2L58.9,35.2z M49.6,45.6
		l-0.9,3.8l3.1,2.4l-3.9,0.3l-1.3,3.7l-1.5-3.6l-3.9-0.1l2.9-2.6L43,45.8l3.4,2L49.6,45.6L49.6,45.6z M41.6,58.9L41.6,64l4.6,2.1
		l-4.8,1.5l-0.6,5l-2.9-4.1l-4.9,1l3-4.1L33.5,61l4.8,1.6L41.6,58.9L41.6,58.9z M36,75.9l1.5,6.3l6.3,1.1l-5.5,3.4l0.9,6.4L34.3,89
		l-5.8,2.8l2.4-6l-4.5-4.7l6.4,0.5L36,75.9L36,75.9z M188.9,75.9l-1.5,6.3l-6.3,1.1l5.5,3.4l-0.9,6.4l4.9-4.2l5.8,2.8l-2.4-6
		l4.5-4.7l-6.4,0.5L188.9,75.9L188.9,75.9z M183.2,58.9l0.1,5.1l-4.6,2.1l4.8,1.5l0.6,5l2.9-4.1l4.9,1l-3-4.1l2.5-4.4l-4.8,1.6
		L183.2,58.9L183.2,58.9z M175.3,45.6l0.9,3.8l-3.1,2.4l3.9,0.3l1.3,3.7l1.5-3.6l3.9-0.1l-2.9-2.6l1.2-3.8l-3.4,2L175.3,45.6
		L175.3,45.6z M166,35.2l1.3,2.9l-2.2,2.3l3.2-0.3l1.6,2.8l0.7-3.1l3.1-0.6l-2.7-1.6l0.4-3.2l-2.4,2.1L166,35.2L166,35.2z"/>
	<path class="st1" d="M112.4,21.7c29.6,0,53.6,24,53.6,53.6c0,29.6-24,53.6-53.6,53.6c-29.6,0-53.6-24-53.6-53.6
		C58.8,45.7,82.8,21.7,112.4,21.7L112.4,21.7z M155.3,45.3c0.8,31.4-14.8,63.7-41.9,82.4c28.5-0.5,51.4-23.7,51.4-52.3
		C164.8,64.2,161.3,53.8,155.3,45.3L155.3,45.3z M111.5,127.7C85,109.2,68.9,76.5,69.6,45.3c-6,8.5-9.5,18.9-9.5,30.1
		C60.1,104,83,127.3,111.5,127.7L111.5,127.7z M70.3,44.3c12.4-2.9,27.6-9.3,41.5-21.3C94.8,23.2,79.7,31.6,70.3,44.3L70.3,44.3z
		 M113.1,23c13.4,12,28.7,18.3,41.5,21.3C145.1,31.6,130.1,23.2,113.1,23L113.1,23z M154.2,45.3c-24.5-5.7-39.5-19-41.8-21.4
		c-2.3,2.3-17.7,15.8-41.7,21.4c-0.5,52.5,38.3,79.4,41.7,81.7C115.8,124.7,154.6,98.7,154.2,45.3L154.2,45.3z"/>
	<path class="st2" d="M150.9,47.2c0.9,28.9-13.9,59.1-38.5,76.1C88.5,106.6,73.1,76,74,47.2c11.1-2.6,25.8-8.3,38.4-19.7
		C124.5,39,139.4,44.5,150.9,47.2L150.9,47.2z M109.1,31.8h6.7c-1.7-1.3-2.8-2.4-3.3-2.9C112,29.5,110.8,30.5,109.1,31.8L109.1,31.8
		z M116.3,32.3h-7.8c-1.2,0.9-2.6,1.9-4.3,3h16.3C118.9,34.2,117.4,33.2,116.3,32.3L116.3,32.3z M121.1,35.7h-17.6
		c-1.5,1-3.2,2-5.1,3h11c-0.3,0.1-0.6,0.3-0.8,0.4h-11c-1.9,1-3.9,2-6.1,3h12.7c-0.2,0.1-0.3,0.3-0.5,0.4H90.6c-2.4,1.1-5,2.1-7.8,3
		H93c-0.1,0.1-0.3,0.3-0.4,0.4h-11c-2.1,0.7-4.3,1.3-6.5,1.8c0,0.4,0,0.8,0,1.2h21.5c0.1,0.1,0.2,0.3,0.3,0.4H75c0,1,0,2,0.1,3h22.1
		v0.4H75.1c0.1,1,0.1,2,0.2,3h21.9v0.4H75.4c0.1,1,0.2,2,0.3,3h21.5V60H75.8c0.1,1,0.3,2,0.4,3h21v0.4h-21c0.2,1,0.4,2,0.6,3h19.3
		h1.2h0.2L97.1,67h-0.3h-1.1H76.9c0.2,1,0.4,2,0.7,3H96l0.5,0.4H77.7c0.3,1,0.5,2.1,0.8,3.1h18.7v0.4H78.7c0.3,1,0.6,2,1,3h17.6v0.4
		H79.8c0.4,1,0.7,2.1,1.1,3h16.4v0.4H81c0.4,1,0.8,2,1.2,3h15v0.4H82.5c0.5,1,0.9,2.1,1.4,3h13.4v0.4H84.1c0.5,1,1,2,1.5,3h11.6v0.4
		H85.8c0.5,1,1.1,2,1.7,3h9.7c0,0.1,0,0.3,0,0.4h-9.5c0.6,1,1.3,2.1,1.9,3h6.5c-0.1,0.2-0.3,0.3-0.4,0.4h-5.8c0.7,1.1,1.4,2.1,2.1,3
		h2.6c0.2,0.2,0.3,0.3,0.5,0.4h-2.8c0.8,1.1,1.5,2.1,2.3,3h6.6c0.1,0.1,0.1,0.3,0.2,0.4H95c0.8,1.1,1.7,2.1,2.5,3h6.1
		c0.2,0.1,0.3,0.3,0.5,0.4h-6.2c0.9,1.1,1.9,2.1,2.8,3h23.7c0.9-0.9,1.8-2,2.8-3h-15.3c-0.2-0.1-0.4-0.3-0.5-0.4h16.2
		c0.8-1,1.7-2,2.5-3h-21.2c-0.1-0.1-0.2-0.3-0.2-0.4h21.7c0.8-1,1.5-2,2.3-3h-25.1c0-0.1-0.1-0.3-0.1-0.4H133c0.7-1,1.4-2,2.1-3h-28
		c0-0.1,0-0.3,0-0.4h28.3c0.6-1,1.3-2,1.9-3h-30.3c0-0.1,0-0.3,0-0.4h30.6c0.6-1,1.1-2,1.7-3h-32.3v-0.4h32.5c0.5-1,1-2,1.5-3h-34
		l0-0.4h34.2c0.5-1,0.9-2,1.4-3h-35.6v-0.4h35.8c0.4-1,0.8-2,1.2-3h-20.6c0.2-0.1,0.5-0.2,0.7-0.2c0.2-0.1,0.3-0.1,0.5-0.2h19.6
		c0.4-1,0.7-2,1.1-3h-15.8c0.2-0.1,0.3-0.3,0.5-0.4h15.5c0.3-1,0.6-2,0.9-3h-14c0.1-0.1,0.2-0.3,0.3-0.4h13.8c0.3-1,0.6-2,0.8-3.1
		h-13c0.1-0.1,0.1-0.3,0.2-0.4h13c0.2-1,0.5-2,0.7-3h-12.6c0-0.1,0.1-0.3,0.1-0.4h12.6c0.2-1,0.4-2,0.6-3H136c0-0.1,0-0.3,0.1-0.4
		h12.6c0.2-1,0.3-2,0.4-3h-12.9c0-0.1,0-0.3,0-0.4h13c0.1-1,0.2-2,0.3-3h-13.5c0-0.1,0-0.3-0.1-0.4h13.6c0.1-1,0.1-2,0.2-3h-14.4
		c0-0.1-0.1-0.3-0.1-0.4h14.5c0-1,0.1-2,0.1-3h-15.7c-0.1-0.1-0.1-0.3-0.2-0.4h15.9c0-0.4,0-0.8,0-1.2c-2.3-0.5-4.5-1.2-6.7-1.8
		h-10.9c-0.1-0.1-0.2-0.3-0.3-0.4h9.8c-2.8-0.9-5.5-2-7.9-3h-4.5c-0.2-0.1-0.3-0.3-0.5-0.4h4c-2.2-1-4.2-2-6.1-3h-2.6
		c-0.3-0.2-0.7-0.3-1-0.4h2.8C124.3,37.7,122.6,36.7,121.1,35.7L121.1,35.7z M109.5,38.8h1.2c-0.3,0.1-0.6,0.3-0.9,0.4h-1.1
		C108.9,39.1,109.2,38.9,109.5,38.8L109.5,38.8z M104.3,42.2h1.2c-0.2,0.1-0.3,0.3-0.5,0.4h-1.2C104,42.5,104.2,42.4,104.3,42.2
		L104.3,42.2z M93,45.7h0.7c-0.1,0.1-0.3,0.3-0.4,0.4h-0.7C92.7,46,92.8,45.9,93,45.7L93,45.7z M96.5,49.2h0.9
		c0,0.1,0.1,0.3,0.1,0.4h-0.7C96.7,49.5,96.6,49.3,96.5,49.2L96.5,49.2z M97.2,52.7h0.3l0,0.4h-0.3V52.7L97.2,52.7z M97.2,56.1h0.3
		l0,0.4h-0.3V56.1L97.2,56.1z M97.2,59.6h0.3l0,0.4h-0.3V59.6L97.2,59.6z M97.2,63.1h0.3l0,0.4h-0.3V63.1L97.2,63.1z M96,69.9h0.6
		l0.4,0.4h-0.6L96,69.9L96,69.9z M97.2,73.5h0.3l0,0.4h-0.3V73.5L97.2,73.5z M97.2,76.9h0.3l0,0.4h-0.3V76.9L97.2,76.9z M97.2,80.4
		h0.3l0,0.4h-0.3V80.4L97.2,80.4z M97.2,83.9h0.3l0,0.4h-0.3V83.9L97.2,83.9z M97.2,87.3h0.3l0,0.4h-0.3V87.3L97.2,87.3z M97.2,90.8
		h0.3l0,0.4h-0.3V90.8L97.2,90.8z M97.2,94.2h0.3l0,0.4h-0.3C97.2,94.5,97.2,94.3,97.2,94.2L97.2,94.2z M96.2,97.7h1.3
		c0,0.1,0,0.2-0.1,0.3c0,0,0,0.1-0.1,0.1h-1.5C95.9,98,96,97.8,96.2,97.7L96.2,97.7z M94.6,101.1h0.9c0.2,0.1,0.4,0.3,0.7,0.4h-1.1
		C94.9,101.4,94.8,101.3,94.6,101.1L94.6,101.1z M101.2,104.6h0.9c0.1,0.1,0.1,0.3,0.2,0.4h-0.9
		C101.3,104.9,101.3,104.7,101.2,104.6L101.2,104.6z M103.6,108.1h0.9c0.2,0.1,0.3,0.3,0.5,0.4h-0.9
		C103.9,108.4,103.8,108.2,103.6,108.1L103.6,108.1z M111.8,108.5h-1.1c-0.2-0.1-0.3-0.3-0.4-0.4h1.1
		C111.5,108.2,111.7,108.4,111.8,108.5L111.8,108.5z M108.9,105h-0.7c-0.1-0.1-0.1-0.3-0.2-0.4h0.7
		C108.7,104.7,108.8,104.9,108.9,105L108.9,105z M107.6,101.6h-0.8c0-0.1-0.1-0.3-0.1-0.4h0.8C107.5,101.3,107.6,101.4,107.6,101.6
		L107.6,101.6z M107.1,98.1h-0.9l0-0.1l0-0.4h0.8C107,97.8,107,97.9,107.1,98.1L107.1,98.1z M106.9,94.6h-0.7l0-0.4h0.7
		C106.9,94.3,106.9,94.5,106.9,94.6L106.9,94.6z M106.9,91.2h-0.7l0-0.4h0.7V91.2L106.9,91.2z M106.9,87.8h-0.7l0-0.4h0.7
		L106.9,87.8L106.9,87.8z M106.9,84.3h-0.7l0-0.4h0.7V84.3L106.9,84.3z M123.4,80.8h-3.5c0.8-0.1,1.7-0.2,2.6-0.4h2
		c-0.2,0.1-0.3,0.1-0.5,0.2C123.9,80.7,123.6,80.8,123.4,80.8L123.4,80.8z M129.4,77.4h-0.6c0.2-0.1,0.3-0.3,0.5-0.4h0.6
		C129.7,77.1,129.6,77.2,129.4,77.4L129.4,77.4z M132.3,73.9h-0.4c0.1-0.1,0.2-0.3,0.3-0.4h0.4C132.5,73.6,132.4,73.8,132.3,73.9
		L132.3,73.9z M134.2,70.4h-0.4c0.1-0.1,0.1-0.3,0.2-0.4h0.3C134.3,70.1,134.3,70.2,134.2,70.4L134.2,70.4z M135.4,67h-0.3
		c0-0.1,0.1-0.3,0.1-0.4h0.3C135.5,66.7,135.4,66.8,135.4,67L135.4,67z M136,63.5h-0.3c0-0.1,0-0.3,0.1-0.4h0.3
		C136.1,63.2,136.1,63.3,136,63.5L136,63.5z M136.3,60H136c0-0.1,0-0.3,0-0.4h0.2C136.3,59.7,136.3,59.9,136.3,60L136.3,60z
		 M136.1,56.5h-0.2c0-0.1,0-0.3-0.1-0.4h0.2C136,56.3,136,56.4,136.1,56.5L136.1,56.5z M135.4,53.1h-0.2c0-0.1-0.1-0.3-0.1-0.4h0.2
		C135.3,52.8,135.4,52.9,135.4,53.1L135.4,53.1z M134.2,49.6h-0.1c-0.1-0.1-0.1-0.3-0.2-0.4h0.1C134.1,49.3,134.1,49.5,134.2,49.6
		L134.2,49.6z M132.4,46.1h-0.1c-0.1-0.1-0.2-0.3-0.3-0.4h0.1C132.2,45.9,132.3,46,132.4,46.1L132.4,46.1z M129.5,42.7h-0.2
		c-0.2-0.1-0.3-0.3-0.5-0.4h0.2C129.2,42.4,129.3,42.5,129.5,42.7L129.5,42.7z M124.4,39.2h-0.7c-0.4-0.2-0.8-0.3-1.2-0.4h0.9
		C123.7,38.9,124.1,39.1,124.4,39.2L124.4,39.2z M106.2,73.5h0.7v0.4h-0.7L106.2,73.5L106.2,73.5z M106.9,73.5h1.6
		c0,0.1,0,0.3,0.1,0.4h-1.7V73.5L106.9,73.5z M108.6,73.5h0.6c0,0.1,0.1,0.3,0.1,0.4h-0.6C108.6,73.8,108.6,73.6,108.6,73.5
		L108.6,73.5z M106.2,76.9h0.7v0.4h-0.7L106.2,76.9L106.2,76.9z M106.9,76.9h2.8c0.1,0.1,0.2,0.3,0.3,0.4h-3.1V76.9L106.9,76.9z
		 M109.7,76.9h1.1c0.1,0.1,0.2,0.3,0.3,0.4H110C109.9,77.2,109.8,77.1,109.7,76.9L109.7,76.9z M106.2,80.4h0.7v0.4h-0.7L106.2,80.4
		L106.2,80.4z M106.9,80.4h6.2c0.3,0.2,0.5,0.3,0.8,0.4h-7V80.4L106.9,80.4z M113.1,80.4h2.7c0.7,0.2,1.5,0.4,2.4,0.4H114
		C113.7,80.7,113.4,80.6,113.1,80.4L113.1,80.4z M109.4,45.7h0.7c-0.1,0.1-0.3,0.3-0.4,0.4H109C109.1,46,109.3,45.9,109.4,45.7
		L109.4,45.7z M110.1,45.7h12.4c0.1,0.1,0.3,0.3,0.4,0.4h-13.2C109.8,46,110,45.9,110.1,45.7L110.1,45.7z M122.5,45.7h1
		c0.1,0.1,0.2,0.3,0.4,0.4h-0.9C122.8,46,122.6,45.9,122.5,45.7L122.5,45.7z M107.1,49.2h0.7c-0.1,0.1-0.1,0.3-0.2,0.4H107
		C107,49.5,107.1,49.3,107.1,49.2L107.1,49.2z M107.9,49.2h17.1c0.1,0.1,0.1,0.3,0.2,0.4h-17.4C107.8,49.5,107.8,49.3,107.9,49.2
		L107.9,49.2z M124.9,49.2h0.7c0.1,0.1,0.1,0.3,0.2,0.4h-0.6C125.1,49.5,125,49.3,124.9,49.2L124.9,49.2z M106.3,52.7h0.7
		c0,0.1,0,0.3,0,0.4h-0.7C106.3,52.9,106.3,52.8,106.3,52.7L106.3,52.7z M107,52.7h18.9c0,0.1,0,0.3,0,0.4h-19
		C107,52.9,107,52.8,107,52.7L107,52.7z M125.9,52.7h0.6c0,0.1,0,0.3,0,0.4h-0.6C125.9,52.9,125.9,52.8,125.9,52.7L125.9,52.7z
		 M106.3,56.1h0.7v0.4h-0.7L106.3,56.1L106.3,56.1z M106.9,56.1h18.7c0,0.1-0.1,0.3-0.1,0.4h-18.6V56.1L106.9,56.1z M125.7,56.1h0.7
		c0,0.1-0.1,0.3-0.1,0.4h-0.7C125.6,56.4,125.6,56.3,125.7,56.1L125.7,56.1z M106.3,59.6h0.7V60h-0.7L106.3,59.6L106.3,59.6z
		 M106.9,59.6h16.8c0,0-0.1,0.1-0.1,0.1c0.1,0.1,0.1,0.2,0.2,0.3h-16.9V59.6L106.9,59.6z M123.7,59.6h0.9c0,0-0.1,0.1-0.1,0.1
		c0,0.1,0.1,0.2,0.1,0.3h-0.8C123.8,59.9,123.7,59.8,123.7,59.6C123.7,59.7,123.7,59.6,123.7,59.6L123.7,59.6z M106.3,63.1h0.7v0.4
		h-0.7L106.3,63.1L106.3,63.1z M106.9,63.1h18.2c0,0.1,0.1,0.3,0.1,0.4h-18.4V63.1L106.9,63.1z M125.2,63.1h0.6
		c0,0.1,0.1,0.3,0.1,0.4h-0.6C125.3,63.3,125.2,63.2,125.2,63.1L125.2,63.1z M106.2,66.5h0.7V67h-0.7L106.2,66.5L106.2,66.5z
		 M106.9,66.5h3.9c-0.2,0.1-0.3,0.3-0.5,0.4h-3.4V66.5L106.9,66.5z M110.8,66.5h1.5c-0.3,0.1-0.6,0.3-0.9,0.4h-1.1
		C110.5,66.8,110.6,66.7,110.8,66.5L110.8,66.5z M116.1,66.5h1.6c0.1,0.1,0.3,0.3,0.4,0.4h-1.3C116.6,66.8,116.4,66.7,116.1,66.5
		L116.1,66.5z M117.7,66.5h8.2c0,0.1,0,0.3,0,0.4h-7.8C118,66.8,117.9,66.7,117.7,66.5L117.7,66.5z M125.9,66.5h0.6
		c0,0.1,0,0.3,0,0.4h-0.6C125.9,66.8,125.9,66.7,125.9,66.5L125.9,66.5z M106.2,69.9h0.7l0,0.4h-0.7L106.2,69.9L106.2,69.9z
		 M106.9,69.9h1.8c0,0.1-0.1,0.3-0.1,0.4h-1.7L106.9,69.9L106.9,69.9z M108.7,69.9h0.5c0,0.1-0.1,0.3-0.1,0.4h-0.5
		C108.7,70.2,108.7,70.1,108.7,69.9L108.7,69.9z M118.7,69.9h0.6c0,0.1,0,0.3,0,0.4h-0.5C118.8,70.2,118.7,70.1,118.7,69.9
		L118.7,69.9z M119.3,69.9h6.3c0,0.1-0.1,0.3-0.1,0.4h-6.2C119.3,70.2,119.3,70.1,119.3,69.9L119.3,69.9z M125.6,69.9h0.8
		c0,0.1-0.1,0.3-0.1,0.4h-0.8C125.5,70.2,125.6,70.1,125.6,69.9L125.6,69.9z M117.9,73.5h0.4c-0.1,0.2-0.2,0.3-0.4,0.4h-0.8
		C117.4,73.8,117.6,73.7,117.9,73.5L117.9,73.5z M118.3,73.5h5.6c-0.1,0.1-0.2,0.3-0.4,0.4h-5.6C118.1,73.8,118.2,73.6,118.3,73.5
		L118.3,73.5z M123.9,73.5h1.2c-0.1,0.1-0.2,0.3-0.3,0.4h-1.3C123.7,73.8,123.8,73.6,123.9,73.5L123.9,73.5z M123.9,112H101
		c1,1.1,2,2.1,3,3h16.9C121.9,114,122.9,113,123.9,112L123.9,112z M120.4,115.4h-16c1.2,1.2,2.4,2.2,3.4,3h9.1
		C118,117.5,119.2,116.5,120.4,115.4L120.4,115.4z M116.5,118.8h-8.1c2,1.7,3.5,2.7,4,3C113,121.5,114.4,120.5,116.5,118.8
		L116.5,118.8z M93.4,46.8c2-0.1,4.9,1.4,4.9,4.3l0,14.7l-2.5,2.5l2.5,2.4v23.8c0,1.7-0.4,4.3-3.3,5.4c2.1,2.6,4.2,2.1,6.5,0.8
		c0.5,7.2,6.2,9.5,10,8.7c-4.9-3.6-5.5-9.4-5.5-14.4V53.5c0-4.1,2.8-11.3,10.6-11.3c8.7,0,13.5,11.4,8.4,17.5
		c8.9,16.4-12.3,24.6-12.9,12.3c6.9,5.9,8.5-5.1,2.8-5.6c-9.3-0.8-6.4,19.5,9.4,13.1c16.4-6.7,15.6-40.6-8.6-41.2
		c-5.6-0.1-10.7,4.3-14,8.6C99,44.3,96.3,43.6,93.4,46.8L93.4,46.8z M97.2,65.4V51.1c0-2.8-3.2-3.5-5.8-3.4
		c2.6-4.1,6.4-5.5,10.1-2.4c2.5-3.4,8.5-8.2,14.1-8c25.3,0.4,26.4,36.8,8.5,43.3c-17.3,6.3-20-16-9.2-15.2c7.1,0.6,4.8,12.4-1.5,8.7
		c2.5,7.2,18.4-0.2,10.3-14.4c5.4-5.5,0.7-16.4-7.2-16.5c-6.7-0.1-9.5,6.2-9.5,10.4l0,40.3c-0.1,7.1,0.9,12.7,6.8,15.8
		c-5.9,2.8-12.1-1.3-13.2-7.4c-2.6,1.1-5.2,0.3-7.4-3.1c2.2-0.3,4.1-1.7,4.1-5.1v-23l-3-2.8L97.2,65.4L97.2,65.4z"/>
</g>
</svg>
